<svg width="62" height="47" viewBox="0 0 62 47" fill="none" xmlns="http://www.w3.org/2000/svg">
<path d="M59.4 5.91721H55.3144C54.5964 5.91721 54.0144 5.32868 54.0144 4.60269V0H53.8287V30.0555H53.1007C48.9667 30.0555 47.1096 27.9504 45.3156 25.9129C43.6108 23.9787 41.8484 21.9694 38.1546 21.9694H16.2702C11.7998 21.9704 8.17441 18.3078 8.17133 13.7874V0H7.98562V4.60269C7.98562 4.95133 7.84866 5.28568 7.60486 5.5322C7.36107 5.77872 7.03041 5.91721 6.68564 5.91721H2.59997C1.16405 5.91721 0 7.09427 0 8.54625V13.7855C0.00307623 22.8707 7.28744 30.2339 16.2721 30.2339H62V8.54625C62 7.09427 60.836 5.91721 59.4 5.91721Z" fill="#BCC8BC"/>
<path d="M53.7865 38.8033H4.53372C3.09039 38.8033 1.92034 39.971 1.92034 41.4114V47H38.0316C41.7445 47 43.5159 45.0142 45.2296 43.088C47.0328 41.0667 48.8995 38.9784 53.0548 38.9784H59.3866C60.8299 38.9784 62 37.8108 62 36.3704V30.7836H53.7865V38.8033Z" fill="#BCC8BC"/>
</svg>